v 0.258614 0.288648 -0.337779
vn 0.436648 -0.808109 -0.395346
v 0.358491 0.327969 -0.307842
vn 0.436648 -0.808109 -0.395346
v 0.358683 0.261984 -0.172753
vn 0.436648 -0.808109 -0.395346
v 0.456663 0.6 0.040329
vn 0.627442 0.723981 -0.28665
v 0.416439 0.538449 -0.203173
vn 0.627442 0.723981 -0.28665
v 0.367122 0.6 -0.155665
vn 0.627442 0.723981 -0.28665
v -0.0560832 0.6 0.6
vn 0 0 1
v 0.426132 0.184843 0.6
vn 0 0 1
v 0.517857 0.6 0.6
vn 0 0 1
v -0.17965 0.256904 0.6
vn 0 0 1
v 0.245653 0.293601 -0.34896
vn -0.716057 -0.196424 -0.669836
v 0.0843798 0.354966 -0.194553
vn -0.716057 -0.196424 -0.669836
v 0.246714 0.297662 -0.351285
vn -0.716057 -0.196414 -0.669839
v 0.0685533 0.330321 -0.170407
vn -0.716058 -0.196433 -0.669832
v 0.246616 0.290846 -0.346398
vn -0.604481 -0.64552 -0.466805
v 0.0685533 0.330321 -0.170407
vn -0.604481 -0.64552 -0.466805
v 0.245653 0.293601 -0.34896
vn -0.604514 -0.645454 -0.466854
v 0.0218009 0.291649 -0.0563745
vn -0.604447 -0.645586 -0.466757
v 0.410958 0.527919 -0.232015
vn 0.652452 0.359779 -0.666982
v 0.312855 0.408033 -0.392649
vn 0.652452 0.359779 -0.666982
v 0.280001 0.574812 -0.334824
vn 0.652451 0.359781 -0.666983
v 0.368013 0.390906 -0.347931
vn 0.652453 0.359778 -0.666982
v 0.456663 0.6 0.040329
vn 0 1 0
v -0.0560832 0.6 0.6
vn 0 1 0
v 0.517857 0.6 0.6
vn 0 1 0
v 0.187716 0.6 -0.246965
vn 0 1 0
v 0.367122 0.6 -0.155665
vn 0 1 0
v 0.261108 0.6 -0.313467
vn 0 1 0
v 0.358491 0.327969 -0.307842
vn 0.428196 -0.530701 -0.73144
v 0.312855 0.408033 -0.392649
vn 0.428186 -0.530704 -0.731444
v 0.368013 0.390906 -0.347931
vn 0.428212 -0.53069 -0.731438
v 0.258614 0.288648 -0.337779
vn 0.428201 -0.530678 -0.731454
v 0.246714 0.297662 -0.351285
vn 0.428165 -0.530661 -0.731487
v 0.246616 0.290846 -0.346398
vn 0.428165 -0.530637 -0.731504
v 0.245653 0.293601 -0.34896
vn 0.428073 -0.530662 -0.731541
v 0.426132 0.184843 0.6
vn 0.970933 -0.214519 -0.106161
v 0.456663 0.6 0.040329
vn 0.970933 -0.214519 -0.106162
v 0.517857 0.6 0.6
vn 0.970933 -0.214519 -0.106161
v 0.358683 0.261984 -0.172753
vn 0.970933 -0.214518 -0.106169
v 0.416439 0.538449 -0.203173
vn 0.970931 -0.214519 -0.106177
v 0.410958 0.527919 -0.232015
vn 0.970933 -0.214517 -0.10617
v 0.358491 0.327969 -0.307842
vn 0.970934 -0.214515 -0.106159
v 0.368013 0.390906 -0.347931
vn 0.970934 -0.214516 -0.106157
v 0.410958 0.527919 -0.232015
vn 0.559613 0.738563 -0.375976
v 0.367122 0.6 -0.155665
vn 0.559607 0.738568 -0.375976
v 0.416439 0.538449 -0.203173
vn 0.559591 0.738573 -0.375989
v 0.261108 0.6 -0.313467
vn 0.559623 0.738559 -0.37597
v 0.280001 0.574812 -0.334824
vn 0.559624 0.738554 -0.375976
v 0.280001 0.574812 -0.334824
vn -0.66631 0.123706 -0.735342
v 0.187716 0.6 -0.246965
vn -0.666308 0.123706 -0.735343
v 0.261108 0.6 -0.313467
vn -0.666308 0.123715 -0.735342
v 0.312855 0.408033 -0.392649
vn -0.666307 0.123702 -0.735345
v 0.0843798 0.354966 -0.194553
vn -0.666304 0.123704 -0.735347
v 0.246714 0.297662 -0.351285
vn -0.666304 0.123702 -0.735348
v 0.258614 0.288648 -0.337779
vn -0.117657 -0.989106 -0.0884645
v 0.0218009 0.291649 -0.0563745
vn -0.117658 -0.989106 -0.0884668
v 0.246616 0.290846 -0.346398
vn -0.117653 -0.989107 -0.0884618
v 0.358683 0.261984 -0.172753
vn -0.11766 -0.989105 -0.088468
v 0.426132 0.184843 0.6
vn -0.11766 -0.989105 -0.0884691
v -0.17965 0.256904 0.6
vn -0.117659 -0.989105 -0.0884694
v -0.0560832 0.6 0.6
vn -0.908128 0.327065 -0.261405
v 0.0218009 0.291649 -0.0563745
vn -0.908128 0.327065 -0.261406
v -0.17965 0.256904 0.6
vn -0.908128 0.327064 -0.261405
v 0.187716 0.6 -0.246965
vn -0.908128 0.327064 -0.261407
v 0.0843798 0.354966 -0.194553
vn -0.908127 0.327065 -0.261407
v 0.0685533 0.330321 -0.170407
vn -0.908127 0.327067 -0.261406
f 1//1 2//2 3//3 
f 4//4 5//5 6//6 
f 7//7 10//10 8//8 9//9 
f 11//11 14//14 12//12 13//13 
f 15//15 16//16 17//17 
f 15//15 18//18 16//16 
f 19//19 22//22 20//20 21//21 
f 23//23 27//27 28//28 26//26 24//24 25//25 
f 29//29 32//32 30//30 31//31 
f 30//30 32//32 33//33 
f 33//33 32//32 34//34 
f 33//33 34//34 35//35 
f 36//36 39//39 42//42 43//43 41//41 40//40 37//37 38//38 
f 44//44 48//48 47//47 45//45 46//46 
f 49//49 52//52 54//54 53//53 50//50 51//51 
f 55//55 58//58 59//59 60//60 56//56 57//57 
f 61//61 64//64 65//65 66//66 62//62 63//63 
